<?xml version="1.0" encoding="utf-8"?>
<!-- Generator: Adobe Illustrator 17.1.0, SVG Export Plug-In . SVG Version: 6.00 Build 0)  -->
<!DOCTYPE svg PUBLIC "-//W3C//DTD SVG 1.1//EN" "http://www.w3.org/Graphics/SVG/1.1/DTD/svg11.dtd">
<svg version="1.1" xmlns="http://www.w3.org/2000/svg" xmlns:xlink="http://www.w3.org/1999/xlink" x="0px" y="0px"
	 viewBox="0 0 29.6 28.6" enable-background="new 0 0 29.6 28.6" xml:space="preserve">
<g id="Capa_4">
</g>
<g id="Capa_5">
</g>
<g id="Capa_3">
	<g>
		<g>
			<g>
				<path fill="#FFFFFF" d="M22,21.6c-0.2,0-0.4-0.1-0.6-0.2l-3.1-2.5c-0.4-0.3-0.4-0.9-0.1-1.2c0.3-0.4,0.9-0.4,1.2-0.1l3.1,2.5
					c0.4,0.3,0.4,0.9,0.1,1.2C22.5,21.4,22.2,21.6,22,21.6z"/>
			</g>
			<g>
				<path fill="#FFFFFF" d="M12.7,18.8c-3.3,0-5.9-2.6-5.9-5.9S9.4,7,12.7,7s5.9,2.6,5.9,5.9S15.9,18.8,12.7,18.8z M12.7,8.8
					c-2.3,0-4.1,1.9-4.1,4.1s1.9,4.1,4.1,4.1s4.1-1.9,4.1-4.1S14.9,8.8,12.7,8.8z"/>
			</g>
		</g>
	</g>
</g>
<g id="Capa_6">
</g>
<g id="Capa_2">
</g>
</svg>
