<?xml version="1.0" encoding="utf-8"?>
<!-- Generator: Adobe Illustrator 17.1.0, SVG Export Plug-In . SVG Version: 6.00 Build 0)  -->
<!DOCTYPE svg PUBLIC "-//W3C//DTD SVG 1.1//EN" "http://www.w3.org/Graphics/SVG/1.1/DTD/svg11.dtd">
<svg version="1.1" xmlns="http://www.w3.org/2000/svg" xmlns:xlink="http://www.w3.org/1999/xlink" x="0px" y="0px"
	 viewBox="0 0 13.9 12.2" enable-background="new 0 0 13.9 12.2" xml:space="preserve">
<g id="Capa_4">
</g>
<g id="Capa_5">
</g>
<g id="Capa_3">
	<g>
		<path fill="#EA2433" d="M12.7,4.6L7.7,0.9c-0.5-0.4-1.2-0.4-1.7,0L1.1,4.6C0.5,5.1,0.4,6,0.9,6.6c0.5,0.6,1.4,0.7,2,0.3l0.1,0v3.7
			c0,0.6,0.4,1,1,1s1-0.4,1-1V5.3l2.1-1.5L9,5.3v5.3c0,0.6,0.4,1,1,1s1-0.4,1-1V6.8l0.1,0.1c0.3,0.2,0.5,0.3,0.8,0.3
			c0.4,0,0.8-0.2,1.1-0.6C13.4,6,13.3,5.1,12.7,4.6z"/>
	</g>
</g>
<g id="Capa_6">
</g>
<g id="Capa_2">
</g>
</svg>
