<?xml version="1.0" encoding="utf-8"?>
<!-- Generator: Adobe Illustrator 17.1.0, SVG Export Plug-In . SVG Version: 6.00 Build 0)  -->
<!DOCTYPE svg PUBLIC "-//W3C//DTD SVG 1.1//EN" "http://www.w3.org/Graphics/SVG/1.1/DTD/svg11.dtd">
<svg version="1.1" xmlns="http://www.w3.org/2000/svg" xmlns:xlink="http://www.w3.org/1999/xlink" x="0px" y="0px"
	 viewBox="0 0 41.2 38.2" enable-background="new 0 0 41.2 38.2" xml:space="preserve">
<g id="Capa_4">
</g>
<g id="Capa_5">
</g>
<g id="Capa_3">
	<g>
		<g>
			<g>
				<path fill="#EA2433" d="M16.8,32.8C16.8,32.8,16.8,32.8,16.8,32.8c-0.3,0-0.6-0.6-0.8-0.8l-2.8-4l-7.6-0.2c-0.5,0-1-0.5-1-1
					c0-0.5,0.4-1,1-1l8.1,0.1c0.3,0,0.6,0.1,0.8,0.4l2.3,3.1l2.4-3.1c0.2-0.2,0.5-0.4,0.8-0.4l2.4,0c0,0,0.1,0,0.2-0.1
					c0.1-0.1,0.2-0.4,0.2-0.6L22.8,14c0-0.2-0.1-0.3-0.4-0.3l-17,0.2c0,0,0,0,0,0c-0.1,0-0.3-0.3-0.3-0.2C5,13.8,5,13.8,5,13.9
					L4.9,24.6c0,0.5-0.4,1.3-1,1.3c0,0,0,0,0,0c-0.5,0-1-0.8-1-1.4L3,13.9c0-0.7,0.3-1.4,0.7-1.9c0.5-0.5,1.1-0.8,1.8-0.8l17,0.2
					c1.3,0,2.3,1.1,2.3,2.6l-0.1,11.2c0,0.7-0.2,1.3-0.6,1.8c-0.4,0.6-1.1,0.9-1.8,0.9l-1.9,0L17.6,32
					C17.4,32.2,17.1,32.8,16.8,32.8z"/>
			</g>
			<path fill="#EA2433" d="M36.5,5.4l-17-0.2c-0.7,0-1.3,0.3-1.8,0.8C17.3,6.5,17,7.4,17,8.1l0,2.8h2l0-2.8c0-0.2,0.1-0.2,0.2-0.3
				c0.1-0.1,0.2,0,0.3,0c0,0,0,0,0,0l17-0.2c0.3,0,0.4,0.2,0.4,0.4l-0.1,11.1c0,0.2-0.1,0.4-0.2,0.6c-0.1,0.1-0.2,0.1-0.2,0.1
				l-2.4,0c-0.3,0-0.6,0.1-0.8,0.4l-2.4,3.1l-2.3-3.1c-0.2-0.2-0.6-0.4-0.9-0.4l-1.9,0v2l1.4,0l2.9,4.2c0.2,0.2,0.5,0.8,0.8,0.8
				c0,0,0,0,0,0c0.3,0,0.6-0.6,0.8-0.8l2.9-4.1l1.9,0c0.7,0,1.3-0.4,1.8-0.9c0.4-0.5,0.6-1.1,0.6-1.8L38.8,8
				C38.8,6.5,37.8,5.4,36.5,5.4z"/>
		</g>
	</g>
</g>
<g id="Capa_6">
</g>
<g id="Capa_2">
</g>
</svg>
