<?xml version="1.0" encoding="utf-8"?>
<!-- Generator: Adobe Illustrator 17.1.0, SVG Export Plug-In . SVG Version: 6.00 Build 0)  -->
<!DOCTYPE svg PUBLIC "-//W3C//DTD SVG 1.1//EN" "http://www.w3.org/Graphics/SVG/1.1/DTD/svg11.dtd">
<svg version="1.1" xmlns="http://www.w3.org/2000/svg" xmlns:xlink="http://www.w3.org/1999/xlink" x="0px" y="0px"
	 viewBox="0 0 40 31.5" enable-background="new 0 0 40 31.5" xml:space="preserve">
<g id="Capa_4">
</g>
<g id="Capa_5">
</g>
<g id="Capa_3">
	<path d="M36,7.3c0,0.8-0.7,1.5-1.5,1.5h-28C5.7,8.8,5,8.2,5,7.3v0c0-0.8,0.7-1.5,1.5-1.5h28C35.3,5.8,36,6.5,36,7.3L36,7.3z"/>
	<path d="M36,16.3c0,0.8-0.7,1.5-1.5,1.5h-28c-0.8,0-1.5-0.7-1.5-1.5v0c0-0.8,0.7-1.5,1.5-1.5h28C35.3,14.8,36,15.5,36,16.3L36,16.3
		z"/>
	<path d="M36,25.3c0,0.8-0.7,1.5-1.5,1.5h-28c-0.8,0-1.5-0.7-1.5-1.5v0c0-0.8,0.7-1.5,1.5-1.5h28C35.3,23.8,36,24.5,36,25.3L36,25.3
		z"/>
</g>
<g id="Capa_6">
</g>
<g id="Capa_2">
</g>
</svg>
