<?xml version="1.0" encoding="utf-8"?>
<!-- Generator: Adobe Illustrator 17.1.0, SVG Export Plug-In . SVG Version: 6.00 Build 0)  -->
<!DOCTYPE svg PUBLIC "-//W3C//DTD SVG 1.1//EN" "http://www.w3.org/Graphics/SVG/1.1/DTD/svg11.dtd">
<svg version="1.1" xmlns="http://www.w3.org/2000/svg" xmlns:xlink="http://www.w3.org/1999/xlink" x="0px" y="0px"
	 viewBox="0 0 41.2 38.2" enable-background="new 0 0 41.2 38.2" xml:space="preserve">
<g id="Capa_4">
</g>
<g id="Capa_5">
</g>
<g id="Capa_3">
	<g>
		<g>
			<g>
				<path fill="#EA2433" d="M20.6,6.2C13.5,6.2,7.7,12,7.7,19.1S13.5,32,20.6,32s12.9-5.8,12.9-12.9S27.7,6.2,20.6,6.2z M20.6,29.7
					c-5.9,0-10.6-4.8-10.6-10.6c0-5.9,4.8-10.6,10.6-10.6c5.9,0,10.6,4.8,10.6,10.6C31.2,24.9,26.4,29.7,20.6,29.7z"/>
				<path fill="#EA2433" d="M20.9,12.5c-0.6,0-1.2,0.5-1.2,1.2v6.1c0,0.1,0,0.1-0.1,0.2l-2.8,2.8c-0.2,0.2-0.3,0.5-0.3,0.8
					c0,0.3,0.1,0.6,0.3,0.8s0.5,0.3,0.8,0.3c0.3,0,0.6-0.1,0.8-0.3l3.5-3.5v-7.2C22,13,21.5,12.5,20.9,12.5z"/>
			</g>
		</g>
	</g>
</g>
<g id="Capa_6">
</g>
<g id="Capa_2">
</g>
</svg>
